<svg width="1440" height="1024" viewBox="0 0 1440 1024" fill="none" xmlns="http://www.w3.org/2000/svg">
<g id="about-svg">
<g clip-path="url(#clip0)">
<rect width="1440" height="1024" fill="white"/>
<path id="triangle" d="M270.999 196L831.999 612.5L121.999 865.5L270.999 196Z" fill="#6A5ACD"/>
<g id="undraw_my_location_f9pr">
<g clip-path="url(#clip1)">
<g id="about-main">
<path id="Vector" d="M603.442 541.207H601.426V485.97C601.426 481.771 600.6 477.614 598.993 473.735C597.387 469.857 595.032 466.332 592.064 463.364C589.096 460.395 585.572 458.04 581.693 456.434C577.815 454.827 573.658 454 569.461 454H452.448C448.25 454 444.094 454.827 440.215 456.434C436.337 458.04 432.813 460.395 429.845 463.364C426.877 466.332 424.522 469.857 422.916 473.735C421.309 477.614 420.482 481.771 420.482 485.97V789.003C420.482 793.202 421.309 797.359 422.916 801.238C424.522 805.116 426.877 808.641 429.845 811.609C432.813 814.578 436.337 816.933 440.215 818.54C444.094 820.146 448.25 820.973 452.448 820.973H569.461C573.658 820.973 577.815 820.146 581.693 818.54C585.572 816.933 589.096 814.578 592.064 811.609C595.032 808.641 597.387 805.116 598.993 801.238C600.6 797.359 601.426 793.202 601.426 789.003V580.525H603.442V541.207Z" fill="#3F3D56"/>
<path id="Vector_2" opacity="0.2" d="M594.624 486.194V788.782C594.627 791.919 594.011 795.024 592.812 797.922C591.614 800.82 589.855 803.453 587.638 805.671C585.421 807.889 582.788 809.647 579.89 810.846C576.993 812.045 573.887 812.661 570.751 812.658H453.177C450.042 812.66 446.936 812.044 444.039 810.845C441.142 809.646 438.509 807.887 436.292 805.67C434.075 803.452 432.316 800.819 431.117 797.922C429.918 795.024 429.302 791.918 429.305 788.782V486.194C429.302 483.058 429.918 479.953 431.117 477.055C432.316 474.157 434.075 471.524 436.292 469.307C438.509 467.089 441.142 465.331 444.039 464.132C446.936 462.933 450.042 462.317 453.177 462.319H467.44C466.737 464.041 466.469 465.91 466.659 467.76C466.849 469.61 467.491 471.385 468.528 472.929C469.566 474.473 470.967 475.738 472.609 476.612C474.25 477.487 476.081 477.944 477.941 477.944H544.978C546.837 477.944 548.669 477.487 550.31 476.612C551.952 475.738 553.353 474.473 554.39 472.929C555.428 471.385 556.07 469.61 556.26 467.76C556.449 465.91 556.181 464.041 555.479 462.319H570.751C573.887 462.316 576.993 462.932 579.89 464.131C582.788 465.329 585.421 467.088 587.638 469.306C589.855 471.523 591.614 474.156 592.813 477.054C594.011 479.952 594.627 483.058 594.624 486.194V486.194Z" fill="black"/>
<path id="Vector_3" d="M458.967 462.319V812.658H453.176C451.661 812.66 450.15 812.517 448.662 812.23V462.747C450.15 462.46 451.661 462.316 453.176 462.319L458.967 462.319Z" fill="#3F3D56"/>
<path id="Vector_4" d="M514.618 477.944H504.312V812.658H514.618V477.944Z" fill="#3F3D56"/>
<path id="Vector_5" d="M579.026 463.793V811.184C576.377 812.162 573.575 812.662 570.751 812.658H568.721V462.319H570.751C573.575 462.315 576.377 462.814 579.026 463.793V463.793Z" fill="#3F3D56"/>
<path id="Vector_6" d="M594.624 520.655H429.305V530.961H594.624V520.655Z" fill="#3F3D56"/>
<path id="Vector_7" d="M594.624 637.635H429.305V647.942H594.624V637.635Z" fill="#3F3D56"/>
<path id="Vector_8" d="M589.331 695.352H506.373V705.659H589.331V695.352Z" fill="#3F3D56"/>
<path id="Vector_9" d="M594.624 564.458H504.312V574.765H594.624V564.458Z" fill="#3F3D56"/>
<path id="Vector_10" d="M511.758 530.271L510.563 530.961L504.313 534.569L458.969 560.753L448.663 566.705L429.305 577.882V565.978L448.663 554.801L458.969 548.854L489.952 530.961L504.313 522.67L506.606 521.345L511.758 530.271Z" fill="#3F3D56"/>
<path id="Vector_11" d="M594.624 750.493H429.305V760.8H594.624V750.493Z" fill="#3F3D56"/>
<path id="Vector_12" d="M630.553 564.973C630.553 597.703 571.297 670.616 571.297 670.616C571.297 670.616 512.041 597.703 512.041 564.973C512.041 549.256 518.284 534.182 529.397 523.068C540.509 511.954 555.581 505.71 571.297 505.71C587.013 505.71 602.085 511.954 613.197 523.068C624.31 534.182 630.553 549.256 630.553 564.973V564.973Z" fill="#CCCCCC"/>
<path id="Vector_13" opacity="0.2" d="M571.298 597.439C590.649 597.439 606.336 581.75 606.336 562.397C606.336 543.043 590.649 527.354 571.298 527.354C551.947 527.354 536.26 543.043 536.26 562.397C536.26 581.75 551.947 597.439 571.298 597.439Z" fill="black"/>
<path id="Vector_14" d="M570.145 576.23C577.355 576.23 583.199 570.385 583.199 563.175C583.199 555.964 577.355 550.12 570.145 550.12C562.936 550.12 557.092 555.964 557.092 563.175C557.092 570.385 562.936 576.23 570.145 576.23Z" fill="#CCCCCC"/>
<path id="Vector_15" d="M590.524 601.047C591.07 598.213 590.982 595.294 590.269 592.498C589.555 589.702 588.232 587.099 586.395 584.874C584.558 582.649 582.252 580.857 579.642 579.627C577.032 578.398 574.182 577.76 571.297 577.76C568.412 577.76 565.562 578.398 562.952 579.627C560.342 580.857 558.036 582.649 556.199 584.874C554.362 587.099 553.039 589.702 552.325 592.498C551.612 595.294 551.525 598.213 552.07 601.047H590.524Z" fill="#CCCCCC"/>
<path id="Vector_16" d="M633.047 517.276C633.047 517.276 623.737 513.951 617.752 527.252C611.767 540.553 602.457 555.185 602.457 555.185L607.777 556.515C607.777 556.515 609.107 547.204 612.432 545.874L611.102 557.845C611.102 557.845 651.001 571.812 668.956 556.515L668.291 551.86C668.291 551.86 670.951 552.525 670.951 556.515L672.946 554.52C672.946 554.52 670.951 550.529 664.966 545.209C661.038 541.717 659.688 535.073 659.224 530.919C658.877 527.45 657.489 524.168 655.243 521.502C651.266 516.892 644.019 511.992 633.047 517.276Z" fill="#2F2E41"/>
<path id="Vector_17" d="M689.553 592.544C689.553 592.544 707.072 607.488 709.648 616.249C712.225 625.01 699.858 626.04 699.858 626.04L673.064 628.617C673.064 628.617 672.549 640.985 667.911 642.531C663.274 644.077 666.97 622.079 666.97 622.079L693.16 614.703L681.308 602.335L689.553 592.544Z" fill="#FBBEBE"/>
<path id="Vector_18" d="M607.624 608.004L605.563 635.316L594.227 681.696C594.227 681.696 583.922 702.825 592.682 703.34C601.441 703.855 600.926 683.242 600.926 683.242L617.414 639.439L618.96 609.55L607.624 608.004Z" fill="#FBBEBE"/>
<path id="Vector_19" d="M616.898 805.892V825.99L629.265 822.898L625.658 804.346L616.898 805.892Z" fill="#FBBEBE"/>
<path id="Vector_20" d="M682.854 805.892V825.99L695.22 822.898L691.613 804.346L682.854 805.892Z" fill="#FBBEBE"/>
<path id="Vector_21" d="M636.479 560.078C645.87 560.078 653.482 552.464 653.482 543.072C653.482 533.679 645.87 526.066 636.479 526.066C627.088 526.066 619.475 533.679 619.475 543.072C619.475 552.464 627.088 560.078 636.479 560.078Z" fill="#FBBEBE"/>
<path id="Vector_22" d="M628.75 551.317C628.75 551.317 634.933 573.476 625.143 579.145C615.353 584.814 649.876 588.936 659.151 571.93C659.151 571.93 642.662 566.262 647.3 551.317H628.75Z" fill="#FBBEBE"/>
<path id="Vector_23" d="M616.899 581.722L613.807 580.691C613.807 580.691 607.624 583.268 607.624 587.906C607.624 592.544 606.594 611.096 606.594 611.096L620.506 612.642L616.899 581.722Z" fill="#A1A3CF"/>
<path id="Vector_24" d="M618.959 636.836C618.959 636.836 601.955 658.506 601.955 684.788C601.955 711.07 606.077 806.407 606.077 806.407C606.077 806.407 621.535 813.621 630.81 804.861L639.055 696.641L671.517 808.468C671.517 808.468 686.975 811.56 694.188 806.407L680.276 734.26C680.276 734.26 679.761 648.715 664.303 642.531C648.845 636.347 618.959 636.836 618.959 636.836Z" fill="#2F2E41"/>
<path id="Vector_25" d="M630.295 819.805C630.295 819.805 616.898 812.591 615.867 822.382C614.837 832.173 614.322 838.357 614.322 838.357C614.322 838.357 612.776 850.21 627.203 847.634C641.631 845.057 636.478 837.842 636.478 837.842C636.478 837.842 631.325 829.597 631.325 827.535C631.325 825.474 630.295 819.805 630.295 819.805Z" fill="#2F2E41"/>
<path id="Vector_26" d="M681.534 819.571C681.534 819.571 693.727 810.466 696.184 820C698.641 829.534 700.059 835.575 700.059 835.575C700.059 835.575 703.328 847.072 688.678 846.643C674.029 846.213 678.066 838.32 678.066 838.32C678.066 838.32 681.953 829.407 681.65 827.368C681.347 825.329 681.534 819.571 681.534 819.571Z" fill="#2F2E41"/>
<path id="Vector_27" d="M666.365 574.507C666.365 574.507 673.064 570.9 679.762 578.63L693.159 594.09L682.854 605.427L663.273 593.574L666.365 574.507Z" fill="#A1A3CF"/>
<path id="Vector_28" d="M618.104 543.179C624.123 538.822 628.996 533.804 632.219 527.835C632.219 527.835 643.266 540.11 650.017 540.724C656.768 541.338 650.631 525.993 650.631 525.993L638.357 522.924L626.696 524.152L617.49 530.29L618.104 543.179Z" fill="#2F2E41"/>
<path id="Vector_29" d="M656.574 570.9C656.574 570.9 649.363 582.302 627.72 576.859L615.439 580.241L613.807 580.691C613.807 580.691 615.352 611.611 619.475 617.28C623.597 622.948 622.566 626.04 621.536 626.556C620.505 627.071 617.929 626.04 619.475 628.617C621.02 631.194 623.082 629.648 621.02 631.194C618.959 632.74 617.929 638.408 617.929 638.408L666.364 644.592C666.364 644.592 664.818 624.494 668.941 614.188C673.063 603.881 674.093 599.758 674.093 599.758L671.002 573.992L656.574 570.9Z" fill="#A1A3CF"/>
<path id="Vector_30" d="M571.298 713.389C580.119 713.389 587.271 706.237 587.271 697.414C587.271 688.591 580.119 681.438 571.298 681.438C562.476 681.438 555.324 688.591 555.324 697.414C555.324 706.237 562.476 713.389 571.298 713.389Z" fill="#BDBDBD"/>
</g>
<g id="dashes">
<path id="dash-25" d="M439 756C436.333 756 433.667 756 431 756" stroke="#FF0303" stroke-width="3" stroke-linecap="round" stroke-linejoin="round"/>
<path id="dash-24" d="M457 756C454.333 756 451.667 756 449 756" stroke="#FF0303" stroke-width="3" stroke-linecap="round" stroke-linejoin="round"/>
<path id="dash-23" d="M476 756C473.333 756 470.667 756 468 756" stroke="#FF0303" stroke-width="3" stroke-linecap="round" stroke-linejoin="round"/>
<path id="dash-22" d="M494 756C491.333 756 488.667 756 486 756" stroke="#FF0303" stroke-width="3" stroke-linecap="round" stroke-linejoin="round"/>
<path id="dash-21" d="M513 756C510.333 756 507.667 756 505 756" stroke="#FF0303" stroke-width="3" stroke-linecap="round" stroke-linejoin="round"/>
<path id="dash-20" d="M536 756C533.333 756 530.667 756 528 756" stroke="#FF0303" stroke-width="3" stroke-linecap="round" stroke-linejoin="round"/>
<path id="dash-19" d="M554 756C551.333 756 548.667 756 546 756" stroke="#FF0303" stroke-width="3" stroke-linecap="round" stroke-linejoin="round"/>
<path id="dash-18" d="M573 756C570.333 756 567.667 756 565 756" stroke="#FF0303" stroke-width="3" stroke-linecap="round" stroke-linejoin="round"/>
<path id="dash-17" d="M574 747C574 744.333 574 741.667 574 739" stroke="#FF0303" stroke-width="3" stroke-linecap="round" stroke-linejoin="round"/>
<path id="dash-16" d="M574 727C574 724.333 574 721.667 574 719" stroke="#FF0303" stroke-width="3" stroke-linecap="round" stroke-linejoin="round"/>
<path id="dash-15" d="M536 643C533.333 643 530.667 643 528 643" stroke="#FF0303" stroke-width="3" stroke-linecap="round" stroke-linejoin="round"/>
<path id="dash-14" d="M517 643C514.333 643 511.667 643 509 643" stroke="#FF0303" stroke-width="3" stroke-linecap="round" stroke-linejoin="round"/>
<path id="dash-13" d="M499 643C496.333 643 493.667 643 491 643" stroke="#FF0303" stroke-width="3" stroke-linecap="round" stroke-linejoin="round"/>
<path id="dash-12" d="M480 643C477.333 643 474.667 643 472 643" stroke="#FF0303" stroke-width="3" stroke-linecap="round" stroke-linejoin="round"/>
<path id="dash-11" d="M462 643C459.333 643 456.667 643 454 643" stroke="#FF0303" stroke-width="3" stroke-linecap="round" stroke-linejoin="round"/>
<path id="dash-10" d="M454.279 625C454.186 627.665 454.093 630.33 454 632.995" stroke="#FF0303" stroke-width="3" stroke-linecap="round" stroke-linejoin="round"/>
<path id="dash-9" d="M454.279 607.002C454.186 609.667 454.093 612.333 454 614.998" stroke="#FF0303" stroke-width="3" stroke-linecap="round" stroke-linejoin="round"/>
<path id="dash-8" d="M454.141 588C454.141 590.667 454.141 593.333 454.141 596" stroke="#FF0303" stroke-width="3" stroke-linecap="round" stroke-linejoin="round"/>
<path id="dash-7" d="M454.141 570C454.141 572.667 454.141 575.333 454.141 578" stroke="#FF0303" stroke-width="3" stroke-linecap="round" stroke-linejoin="round"/>
<path id="dash-6" d="M460.857 554C458.572 555.373 456.286 556.747 454 558.12" stroke="#FF0303" stroke-width="3" stroke-linecap="round" stroke-linejoin="round"/>
<path id="dash-5" d="M479.709 542C477.473 543.452 475.236 544.905 473 546.357" stroke="#FF0303" stroke-width="3" stroke-linecap="round" stroke-linejoin="round"/>
<path id="dash-4" d="M498.709 531C496.473 532.452 494.236 533.905 492 535.357" stroke="#FF0303" stroke-width="3" stroke-linecap="round" stroke-linejoin="round"/>
<path id="dash-3" d="M509.141 517.002C509.048 519.667 508.954 522.333 508.861 524.998" stroke="#FF0303" stroke-width="3" stroke-linecap="round" stroke-linejoin="round"/>
<path id="dash-2" d="M509 498C509 500.667 509 503.333 509 506" stroke="#FF0303" stroke-width="3" stroke-linecap="round" stroke-linejoin="round"/>
<path id="dash-1" d="M509 480C509 482.667 509 485.333 509 488" stroke="#FF0303" stroke-width="3" stroke-linecap="round" stroke-linejoin="round"/>
</g>
</g>
</g>
</g>
</g>
<defs>
<clipPath id="clip0">
<rect width="1440" height="1024" fill="white"/>
</clipPath>
<clipPath id="clip1">
<path d="M336 454H710V848H336V454Z" fill="white"/>
</clipPath>
</defs>
</svg>
