<svg width="1440" height="1024" viewBox="0 0 1440 1024" fill="none" xmlns="http://www.w3.org/2000/svg">
<g id="contact-svg">
<g clip-path="url(#clip0)">
<rect width="1440" height="1024" fill="white"/>
<g id="Group 49">
<text id="Lorem" fill="#C4C4C4" xml:space="preserve" style="white-space: pre" font-family="Montserrat" font-size="50" letter-spacing="0em"><tspan x="191.963" y="280.425">Lorem</tspan></text>
<text id="ISUM" fill="#C4C4C4" xml:space="preserve" style="white-space: pre" font-family="Montserrat" font-size="120" font-weight="900" letter-spacing="0em"><tspan x="377.793" y="281.02">ISUM</tspan></text>
</g>
<circle id="Ellipse 247" cx="517" cy="385" r="650" fill="#6A5ACD"/>
<g id="undraw_faq_rjoy">
<g clip-path="url(#clip1)">
<path id="Vector" d="M1267.71 903.048L1277.07 900.351C1278.73 896.052 1280.14 891.662 1281.31 887.204L1276.92 887.044L1281.71 885.663C1283.09 880.135 1283.66 876.387 1283.66 876.387C1283.66 876.387 1264.69 882.039 1250.4 893.068L1248.63 905.438L1246.95 895.927C1245.39 897.307 1243.92 898.783 1242.55 900.348C1228.8 916.165 1222.81 933.48 1229.18 939.022C1235.56 944.565 1251.87 936.236 1265.63 920.419C1269.89 915.283 1273.33 909.524 1275.85 903.344L1267.71 903.048Z" fill="#E6E6E6"/>
<path id="Vector_2" d="M913.235 846.692L907.902 825.658C898.445 821.65 888.771 818.179 878.924 815.261L878.25 825.037L875.52 814.267C863.308 810.78 855 809.244 855 809.244C855 809.244 866.222 851.918 889.759 884.542L917.185 889.36L895.879 892.432C898.841 895.995 902.024 899.368 905.409 902.532C939.649 934.314 977.786 948.896 990.591 935.101C1003.4 921.307 986.018 884.36 951.778 852.578C941.163 842.725 927.829 834.818 914.481 828.595L913.235 846.692Z" fill="#E6E6E6"/>
<path id="Vector_3" d="M963.955 823.849L970.263 803.086C964.239 794.768 957.752 786.796 950.83 779.208L945.201 787.228L948.43 776.597C939.779 767.3 933.461 761.69 933.461 761.69C933.461 761.69 921.009 804.022 924.295 844.116L945.282 862.417L925.455 854.033C926.149 858.614 927.13 863.148 928.393 867.606C941.276 912.511 966.386 944.707 984.477 939.517C1002.57 934.327 1006.79 893.716 993.908 848.81C989.914 834.889 982.587 821.228 974.377 809.002L963.955 823.849Z" fill="#E6E6E6"/>
<path id="Vector_4" d="M1049.27 910.765L1051.48 920.676L1066.89 919.574L1065.79 908.563L1049.27 910.765Z" fill="#FFB8B8"/>
<path id="Vector_5" d="M1010.74 910.765L1008.53 920.676L993.116 919.574L994.218 908.563L1010.74 910.765Z" fill="#FFB8B8"/>
<path id="Vector_6" d="M1006.33 589.229C1017.88 589.229 1027.25 579.862 1027.25 568.307C1027.25 556.752 1017.88 547.385 1006.33 547.385C994.775 547.385 985.408 556.752 985.408 568.307C985.408 579.862 994.775 589.229 1006.33 589.229Z" fill="#FFB8B8"/>
<path id="Vector_7" d="M993.116 573.812L987.611 599.139L1015.14 607.948L1014.04 576.015L993.116 573.812Z" fill="#FFB8B8"/>
<path id="Vector_8" d="M1003.03 602.442L989.173 591.953C989.173 591.953 986.51 588.127 985.409 591.431C984.307 594.734 974.397 606.847 974.397 606.847L982.105 697.142L1040.47 698.243C1040.47 698.243 1017.66 592.984 1014.75 596.612C1011.84 600.24 1004.13 600.24 1003.03 602.442Z" fill="#D0CDE1"/>
<path id="Vector_9" d="M1014.59 589.779C1014.59 589.779 1010.18 594.183 1012.39 597.487C1014.59 600.79 1012.94 606.916 1015.14 607.432C1017.34 607.948 1012.94 645.387 1019.54 655.297C1026.15 665.208 1022.85 690.534 1022.85 694.939C1022.85 699.344 1029.45 725.771 1029.45 725.771C1029.45 725.771 1051.48 727.974 1051.48 722.468C1051.48 716.962 1043.77 678.422 1043.77 678.422L1050.38 610.15C1050.38 610.15 1050.38 603.543 1042.67 601.341C1034.96 599.139 1019.54 593.633 1019.54 593.633L1014.59 589.779Z" fill="#2F2E41"/>
<path id="Vector_10" d="M1045.97 669.613H1040.47C1040.47 669.613 1011.84 671.815 1014.04 659.702C1016.24 647.589 1038.26 656.399 1038.26 656.399L1044.87 659.702L1045.97 669.613Z" fill="#FFB8B8"/>
<path id="Vector_11" d="M990.048 587.927C990.048 587.927 981.004 593.633 979.903 595.835C978.802 598.038 953.475 610.15 953.475 618.96C953.475 627.769 961.183 637.679 961.183 637.679L971.094 734.581C971.094 734.581 987.611 740.086 988.712 735.682C989.813 731.277 994.218 634.376 992.015 629.971C989.813 625.566 989.813 596.936 989.813 596.936L990.048 587.927Z" fill="#2F2E41"/>
<path id="Vector_12" d="M961.183 747.794L960.082 754.401C960.082 754.401 961.183 776.424 969.992 775.323C978.802 774.222 973.296 752.199 973.296 752.199L972.195 747.794H961.183Z" fill="#FFB8B8"/>
<path id="Vector_13" d="M974.397 691.636C974.397 691.636 975.498 790.74 981.004 822.673C986.51 854.606 988.712 909.664 988.712 909.664C988.712 909.664 1003.03 911.866 1005.23 912.968C1007.43 914.069 1012.94 910.765 1012.94 910.765L1014.04 747.795L1034.96 821.572C1034.96 821.572 1038.26 910.765 1044.87 912.968C1051.48 915.17 1071.3 910.765 1071.3 910.765C1071.3 910.765 1063.59 825.976 1061.39 822.673C1059.19 819.37 1053.68 722.468 1044.87 704.85L1041.57 692.737C1041.57 692.737 978.802 694.939 974.397 691.636Z" fill="#2F2E41"/>
<path id="Vector_14" d="M1052.58 916.271C1052.58 916.271 1047.07 911.866 1047.07 915.17C1047.07 918.473 1041.57 938.845 1048.17 938.845C1054.78 938.845 1098.83 942.699 1097.73 933.889C1096.62 925.08 1070.13 911.014 1070.13 911.014C1070.13 911.014 1060.29 914.069 1059.19 915.17C1058.08 916.271 1052.58 916.271 1052.58 916.271Z" fill="#2F2E41"/>
<path id="Vector_15" d="M1007.43 916.271C1007.43 916.271 1012.94 911.866 1012.94 915.17C1012.94 918.473 1018.44 938.845 1011.84 938.845C1005.23 938.845 961.183 942.699 962.284 933.889C963.385 925.08 989.883 911.014 989.883 911.014C989.883 911.014 999.723 914.069 1000.82 915.17C1001.93 916.271 1007.43 916.271 1007.43 916.271Z" fill="#2F2E41"/>
<path id="Vector_16" d="M1042.67 609.049L1050.38 610.15L1065.79 654.197C1065.79 654.197 1070.2 676.22 1063.59 679.523C1056.98 682.827 1044.51 682.181 1044.51 682.181L1042.67 657.5L1048.17 658.601L1042.67 647.59V609.049Z" fill="#2F2E41"/>
<path id="Vector_17" d="M958.981 614.555L953.475 618.959C953.475 618.959 947.969 675.118 949.07 680.624C950.172 686.13 956.778 753.3 956.778 753.3L975.498 748.895L962.284 615.656L958.981 614.555Z" fill="#2F2E41"/>
<path id="Vector_18" d="M983.185 553.1C983.185 553.1 977.093 545.372 983.185 541.509V543.441C983.185 543.441 996.237 528.952 1004.07 532.816L1011.03 530.884V532.816L1015.38 530.884L1014.51 533.782H1020.6L1017.99 535.713C1017.99 535.713 1038.01 534.747 1025.82 549.236C1025.82 549.236 1031.61 557.923 1026.11 562.756C1026.11 562.756 1021.47 552.134 1015.38 555.032C1013.73 555.888 1011.87 556.253 1010.02 556.081C1008.17 555.91 1006.4 555.21 1004.94 554.066C1004.94 554.066 992.757 553.1 994.497 558.895C996.237 564.691 995.367 566.623 995.367 566.623C995.367 566.623 991.016 569.52 991.887 571.452C992.757 573.384 992.757 579.179 992.757 579.179C992.757 579.179 988.406 572.418 986.665 573.384C984.925 574.35 975.353 564.691 983.185 553.1Z" fill="#2F2E41"/>
<path id="Vector_19" d="M1221.91 622.259L1175.61 623.409L1169.38 568.2H1221.91V622.259Z" fill="#2F2E41"/>
<path id="Vector_20" d="M1172.9 693.829L1156 811.007C1156 811.007 1141.35 852.696 1140.22 872.977L1135.72 902.271L1156 906.778L1177.4 824.528L1206.7 750.165L1203.32 835.795L1196.56 905.651L1216.84 909.031L1229.23 820.021L1242.75 754.671C1242.75 754.671 1252.89 698.336 1237.12 692.702L1172.9 693.829Z" fill="#2F2E41"/>
<path id="Vector_21" d="M1154.64 895.08L1152.39 922.504C1152.39 922.504 1176.52 936.457 1168.78 939.161C1161.03 941.866 1150.43 938.387 1148.27 937.772C1145.98 937.123 1141.7 936.087 1138.47 935.321C1136.97 934.979 1135.62 934.165 1134.62 933.001C1133.62 931.836 1133.02 930.381 1132.91 928.85L1132.9 928.749C1132.7 925.374 1140.32 896.049 1140.32 896.049L1154.64 895.08Z" fill="#2F2E41"/>
<path id="Vector_22" d="M1213.25 895.766L1215.15 921.989C1215.15 921.989 1242.63 932.199 1235.55 936.334C1228.46 940.469 1217.39 939.079 1215.15 938.889C1211.01 938.541 1200.71 938.193 1200.71 938.193C1200.71 938.193 1198.8 939.842 1197.97 936.567C1197.13 933.292 1199.08 904.035 1199.08 904.035L1213.25 895.766Z" fill="#2F2E41"/>
<path id="Vector_23" d="M1196.56 599.185C1208.38 599.185 1217.97 589.6 1217.97 577.777C1217.97 565.954 1208.38 556.37 1196.56 556.37C1184.74 556.37 1175.15 565.954 1175.15 577.777C1175.15 589.6 1184.74 599.185 1196.56 599.185Z" fill="#FFB8B8"/>
<path id="Vector_24" d="M1184.17 590.171L1179.66 614.959L1198.81 623.973L1203.32 592.425L1184.17 590.171Z" fill="#FFB8B8"/>
<path id="Vector_25" d="M1181.91 707.349L1205.57 724.25C1205.57 724.25 1215.71 750.165 1223.6 745.658C1231.49 741.151 1214.59 718.617 1214.59 718.617L1195.43 699.462L1181.91 707.349Z" fill="#FFB8B8"/>
<path id="Vector_26" d="M1249.51 699.462L1251.77 712.983C1251.77 712.983 1246.13 741.151 1239.37 735.517C1232.61 729.884 1241.63 711.856 1241.63 711.856L1240.5 700.589L1249.51 699.462Z" fill="#FFB8B8"/>
<path id="Vector_27" d="M1196.56 617.212L1194.31 608.199L1180.78 601.438L1176.28 607.072L1161.63 611.579L1178.53 701.716C1178.53 701.716 1235.99 705.096 1237.12 696.083C1238.25 687.069 1225.85 662.281 1225.85 662.281C1225.85 662.281 1229.23 649.887 1228.11 643.127L1223.6 616.086L1205.57 610.452L1201.46 605.471L1197.69 611.579L1196.56 617.212Z" fill="#D0CDE1"/>
<path id="Vector_28" d="M1165.01 613.832L1161.63 611.579C1161.63 611.579 1154.87 612.705 1152.62 621.719C1150.36 630.733 1152.62 671.295 1158.25 679.182C1163.88 687.069 1179.66 710.73 1179.66 710.73L1201.07 700.589L1178.53 674.675L1172.9 642L1165.01 613.832Z" fill="#D0CDE1"/>
<path id="Vector_29" d="M1214.59 618.339L1223.6 616.085C1223.6 616.085 1229.23 618.339 1231.49 626.226C1233.74 634.113 1246.13 673.548 1245.01 676.928C1243.88 680.308 1255.15 702.842 1255.15 702.842L1239.37 703.969L1230.36 680.308L1221.35 656.647L1214.59 618.339Z" fill="#D0CDE1"/>
<path id="Vector_30" d="M1159.46 598.107C1163.97 595.628 1166.07 590.063 1166.22 584.915C1166.37 579.767 1165.12 574.671 1165.02 569.522C1164.97 568.468 1165.06 567.413 1165.29 566.383C1165.67 565.104 1166.25 563.897 1167.02 562.809C1172.89 553.813 1183.09 547.485 1193.84 547.385C1195.4 547.365 1196.94 547.648 1198.38 548.22C1199.49 548.665 1199.86 548.61 1200.07 549.975C1202.62 549.135 1205.38 549.223 1207.87 550.223C1210.33 551.225 1212.63 552.594 1214.68 554.283C1215.9 555.191 1217.06 556.189 1218.13 557.267C1223.81 563.152 1225.12 572.223 1223.47 580.235C1222.94 582.84 1225.51 585.355 1227.63 586.955C1229.75 588.555 1232.21 590.024 1233.25 592.47C1234.25 594.823 1233.7 597.514 1233.9 600.064C1234.13 602.475 1235.03 604.774 1236.49 606.702C1237.96 608.631 1239.93 610.112 1242.19 610.977C1241.73 611.53 1241.13 611.947 1240.45 612.186C1239.77 612.425 1239.04 612.476 1238.33 612.334C1236.86 612.024 1235.48 611.368 1234.31 610.42C1229.92 607.163 1226.77 602.495 1225.4 597.197C1224.78 600.035 1225.02 602.961 1225.04 605.867C1224.99 609.109 1225.59 612.329 1226.8 615.337C1228.03 618.358 1230.29 620.847 1233.18 622.366C1230.4 623.731 1227.33 622.742 1224.97 620.729C1222.7 618.581 1221.07 615.857 1220.24 612.849C1218.65 608.049 1218.01 602.987 1218.34 597.943C1215.75 602.307 1214.8 607.453 1215.67 612.453C1216.58 617.552 1219.24 622.172 1223.2 625.514C1216.3 625.455 1209.52 623.747 1203.42 620.532C1201.84 619.818 1200.45 618.748 1199.36 617.407C1197.4 614.684 1197.86 610.969 1198.41 607.656C1198.85 605.037 1195.57 601.251 1197.45 599.37C1198 598.82 1198.75 598.5 1199.53 598.475C1202.35 598.264 1205.08 597.408 1207.52 595.973C1209.95 594.538 1212.02 592.563 1213.57 590.199C1215.73 586.949 1216.96 583.168 1217.12 579.269C1217.12 576.405 1216.5 573.576 1215.31 570.974C1214.11 568.373 1212.37 566.06 1210.19 564.193C1208.02 562.327 1205.47 560.952 1202.72 560.162C1199.97 559.372 1197.08 559.185 1194.25 559.615C1191.42 560.045 1188.71 561.08 1186.32 562.652C1183.92 564.223 1181.9 566.293 1180.38 568.719C1178.86 571.146 1177.88 573.872 1177.51 576.711C1177.14 579.55 1177.39 582.436 1178.24 585.171C1178.91 587.372 1179.4 589.627 1179.68 591.911C1180.02 594.562 1180.56 597.183 1181.3 599.752C1182.72 604.69 1185.12 609.728 1189.56 612.304C1188.01 612.969 1186.34 613.323 1184.65 613.344C1179.07 613.959 1173.2 613.823 1168.16 611.374C1163.11 608.924 1159.1 603.707 1159.46 598.107Z" fill="#2F2E41"/>
<path id="Vector_31" d="M1171.63 576.252C1187.64 569.832 1203.44 568.462 1218.82 576.252V563.311C1218.82 561.076 1217.93 558.932 1216.35 557.351C1214.77 555.771 1212.62 554.883 1210.39 554.883H1178.28C1177.41 554.883 1176.54 555.055 1175.74 555.39C1174.93 555.724 1174.19 556.215 1173.58 556.833C1172.96 557.451 1172.47 558.185 1172.13 558.993C1171.8 559.801 1171.63 560.667 1171.63 561.541V576.252Z" fill="#2F2E41"/>
<path id="Vector_32" d="M1176.61 584.266C1177.91 584.266 1178.97 582.574 1178.97 580.488C1178.97 578.402 1177.91 576.71 1176.61 576.71C1175.31 576.71 1174.25 578.402 1174.25 580.488C1174.25 582.574 1175.31 584.266 1176.61 584.266Z" fill="#FFB8B8"/>
<path id="Vector_33" d="M1375 939.01H855V941.01H1375V939.01Z" fill="#3F3D56"/>
<g id="Group 50">
<path id="Vector_34" d="M1273.09 856.955C1273.35 857.76 1273.36 858.622 1273.13 859.433C1272.89 860.244 1272.42 860.968 1271.78 861.512C1271.13 862.056 1270.34 862.397 1269.5 862.491C1268.66 862.585 1267.81 862.429 1267.06 862.041C1266.31 861.653 1265.69 861.052 1265.29 860.313C1264.88 859.574 1264.7 858.731 1264.77 857.89C1264.84 857.048 1265.16 856.247 1265.68 855.587C1266.21 854.927 1266.92 854.437 1267.72 854.18C1268.26 854.009 1268.82 853.944 1269.38 853.991C1269.94 854.037 1270.49 854.194 1270.99 854.452C1271.48 854.71 1271.93 855.064 1272.29 855.493C1272.65 855.923 1272.92 856.42 1273.09 856.955V856.955Z" fill="#6C63FF"/>
<path id="Vector_35" opacity="0.3" d="M1273.09 856.955C1273.35 857.76 1273.36 858.622 1273.13 859.433C1272.89 860.244 1272.42 860.968 1271.78 861.512C1271.13 862.056 1270.34 862.397 1269.5 862.491C1268.66 862.585 1267.81 862.429 1267.06 862.041C1266.31 861.653 1265.69 861.052 1265.29 860.313C1264.88 859.574 1264.7 858.731 1264.77 857.89C1264.84 857.048 1265.16 856.247 1265.68 855.587C1266.21 854.927 1266.92 854.437 1267.72 854.18C1268.26 854.009 1268.82 853.944 1269.38 853.991C1269.94 854.037 1270.49 854.194 1270.99 854.452C1271.48 854.71 1271.93 855.064 1272.29 855.493C1272.65 855.923 1272.92 856.42 1273.09 856.955V856.955Z" fill="black"/>
<path id="Vector_36" d="M1273.93 834.083C1274.36 835.411 1274.51 836.816 1274.36 838.204C1274.29 838.802 1274.17 839.393 1274 839.97C1273.64 841.148 1273.12 842.269 1272.44 843.299C1272.33 843.48 1272.2 843.671 1272.02 843.92C1271.81 844.226 1271.56 844.552 1271.27 844.912C1270.75 845.539 1270.27 846.195 1269.83 846.877C1269.56 847.266 1269.36 847.696 1269.23 848.15C1269.09 848.791 1269.27 849.889 1269.76 851.417L1269.84 851.669L1263.04 853.833L1262.67 852.654C1262.37 851.731 1262.15 850.947 1261.98 850.258C1261.81 849.636 1261.68 849.005 1261.58 848.369C1261.48 847.816 1261.48 847.248 1261.57 846.693C1261.78 845.807 1262.54 844.453 1263.88 842.555C1263.93 842.476 1263.99 842.394 1264.05 842.311C1264.11 842.237 1264.16 842.162 1264.22 842.083C1264.69 841.454 1265.09 840.776 1265.42 840.061C1265.52 839.841 1265.59 839.616 1265.66 839.386L1265.67 839.325C1265.85 838.5 1265.79 837.642 1265.5 836.848C1265.44 836.644 1265.36 836.445 1265.27 836.253C1264.94 835.493 1264.34 834.881 1263.59 834.532C1262.78 834.155 1261.86 834.075 1260.99 834.306C1260.88 834.33 1260.78 834.36 1260.67 834.392C1260.27 834.518 1259.89 834.693 1259.53 834.913C1258.85 835.327 1258.33 835.941 1258.02 836.67C1257.86 837.058 1257.75 837.464 1257.68 837.88C1257.53 839.444 1257.61 841.022 1257.93 842.561L1257.99 842.833L1251.05 843.167L1250.15 840.346C1250.14 840.223 1250.14 840.099 1250.14 839.977C1250.1 838.432 1250.32 836.891 1250.81 835.424C1251.02 834.8 1251.28 834.197 1251.6 833.624C1251.68 833.481 1251.76 833.337 1251.85 833.196C1252.41 832.282 1253.08 831.447 1253.86 830.712L1253.93 830.648C1255.41 829.29 1257.18 828.283 1259.11 827.7C1259.31 827.637 1259.54 827.564 1259.78 827.503C1261.7 826.945 1263.72 826.826 1265.69 827.156C1266.58 827.308 1267.44 827.561 1268.27 827.911C1270.57 828.818 1272.43 830.585 1273.45 832.837C1273.64 833.242 1273.8 833.658 1273.93 834.083Z" fill="#6C63FF"/>
<path id="Vector_37" opacity="0.3" d="M1273.93 834.083C1274.36 835.411 1274.51 836.816 1274.36 838.204C1274.29 838.802 1274.17 839.393 1274 839.97C1273.64 841.148 1273.12 842.269 1272.44 843.299C1272.33 843.48 1272.2 843.671 1272.02 843.92C1271.81 844.226 1271.56 844.552 1271.27 844.912C1270.75 845.539 1270.27 846.195 1269.83 846.877C1269.56 847.266 1269.36 847.696 1269.23 848.15C1269.09 848.791 1269.27 849.889 1269.76 851.417L1269.84 851.669L1263.04 853.833L1262.67 852.654C1262.37 851.731 1262.15 850.947 1261.98 850.258C1261.81 849.636 1261.68 849.005 1261.58 848.369C1261.48 847.816 1261.48 847.248 1261.57 846.693C1261.78 845.807 1262.54 844.453 1263.88 842.555C1263.93 842.476 1263.99 842.394 1264.05 842.311C1264.11 842.237 1264.16 842.162 1264.22 842.083C1264.69 841.454 1265.09 840.776 1265.42 840.061C1265.52 839.841 1265.59 839.616 1265.66 839.386L1265.67 839.325C1265.85 838.5 1265.79 837.642 1265.5 836.848C1265.44 836.644 1265.36 836.445 1265.27 836.253C1264.94 835.493 1264.34 834.881 1263.59 834.532C1262.78 834.155 1261.86 834.075 1260.99 834.306C1260.88 834.33 1260.78 834.36 1260.67 834.392C1260.27 834.518 1259.89 834.693 1259.53 834.913C1258.85 835.327 1258.33 835.941 1258.02 836.67C1257.86 837.058 1257.75 837.464 1257.68 837.88C1257.53 839.444 1257.61 841.022 1257.93 842.561L1257.99 842.833L1251.05 843.167L1250.15 840.346C1250.14 840.223 1250.14 840.099 1250.14 839.977C1250.1 838.432 1250.32 836.891 1250.81 835.424C1251.02 834.8 1251.28 834.197 1251.6 833.624C1251.68 833.481 1251.76 833.337 1251.85 833.196C1252.41 832.282 1253.08 831.447 1253.86 830.712L1253.93 830.648C1255.41 829.29 1257.18 828.283 1259.11 827.7C1259.31 827.637 1259.54 827.564 1259.78 827.503C1261.7 826.945 1263.72 826.826 1265.69 827.156C1266.58 827.308 1267.44 827.561 1268.27 827.911C1270.57 828.818 1272.43 830.585 1273.45 832.837C1273.64 833.242 1273.8 833.658 1273.93 834.083Z" fill="black"/>
<path id="Vector_38" d="M1270.32 857.839C1270.58 858.643 1270.59 859.506 1270.35 860.317C1270.12 861.128 1269.65 861.851 1269 862.395C1268.36 862.94 1267.57 863.28 1266.73 863.375C1265.89 863.469 1265.04 863.312 1264.29 862.924C1263.54 862.537 1262.92 861.935 1262.51 861.197C1262.1 860.458 1261.92 859.614 1262 858.773C1262.07 857.932 1262.39 857.13 1262.91 856.47C1263.44 855.81 1264.15 855.32 1264.95 855.064C1265.49 854.892 1266.05 854.827 1266.61 854.874C1267.17 854.92 1267.71 855.077 1268.21 855.335C1268.71 855.593 1269.15 855.947 1269.52 856.377C1269.88 856.806 1270.15 857.303 1270.32 857.839Z" fill="#6C63FF"/>
<path id="Vector_39" d="M1271.16 834.967C1271.59 836.295 1271.73 837.699 1271.58 839.088C1271.52 839.686 1271.4 840.277 1271.23 840.853C1270.87 842.031 1270.34 843.152 1269.67 844.183C1269.55 844.364 1269.42 844.554 1269.25 844.804C1269.03 845.11 1268.78 845.436 1268.49 845.795C1267.98 846.423 1267.5 847.079 1267.05 847.761C1266.79 848.15 1266.59 848.58 1266.46 849.034C1266.32 849.674 1266.5 850.773 1266.98 852.301L1267.06 852.553L1260.27 854.717L1259.89 853.537C1259.6 852.615 1259.37 851.831 1259.2 851.142C1259.04 850.52 1258.91 849.889 1258.81 849.253C1258.71 848.699 1258.7 848.132 1258.8 847.577C1259.01 846.691 1259.76 845.337 1261.1 843.439C1261.16 843.36 1261.22 843.277 1261.28 843.195C1261.33 843.121 1261.39 843.045 1261.44 842.967C1261.92 842.338 1262.32 841.66 1262.65 840.945C1262.74 840.725 1262.82 840.5 1262.88 840.27L1262.9 840.209C1263.07 839.383 1263.01 838.526 1262.73 837.732C1262.67 837.528 1262.59 837.329 1262.49 837.137C1262.17 836.377 1261.57 835.765 1260.82 835.416C1260.01 835.039 1259.08 834.959 1258.22 835.189C1258.11 835.214 1258 835.243 1257.9 835.276C1257.5 835.402 1257.11 835.577 1256.75 835.797C1256.08 836.21 1255.55 836.825 1255.25 837.554C1255.09 837.942 1254.97 838.348 1254.91 838.764C1254.74 839.813 1254.83 841.107 1255.17 842.608L1255.23 842.881L1247.71 844.146L1247.66 843.885C1247.48 842.886 1247.38 841.875 1247.37 840.86C1247.33 839.315 1247.55 837.775 1248.04 836.307C1248.24 835.684 1248.51 835.081 1248.83 834.507C1248.91 834.364 1248.99 834.221 1249.08 834.08C1249.63 833.166 1250.31 832.331 1251.09 831.596L1251.16 831.532C1252.64 830.174 1254.41 829.167 1256.33 828.584C1256.53 828.52 1256.77 828.448 1257 828.387C1258.92 827.829 1260.94 827.71 1262.92 828.04C1263.8 828.191 1264.67 828.445 1265.5 828.795C1267.8 829.702 1269.66 831.468 1270.68 833.72C1270.86 834.126 1271.02 834.542 1271.16 834.967V834.967Z" fill="#6C63FF"/>
</g>
<g id="Group 51">
<path id="Vector_40" d="M1086.62 583.122C1085.54 584.833 1083.97 586.184 1082.12 587.005C1080.27 587.826 1078.22 588.08 1076.23 587.735C1074.23 587.39 1072.38 586.461 1070.92 585.066C1069.45 583.671 1068.43 581.873 1067.98 579.898C1067.54 577.923 1067.69 575.861 1068.41 573.971C1069.14 572.082 1070.41 570.45 1072.07 569.282C1073.72 568.114 1075.68 567.463 1077.71 567.41C1079.73 567.358 1081.72 567.906 1083.44 568.987C1084.58 569.703 1085.56 570.638 1086.34 571.737C1087.12 572.836 1087.67 574.078 1087.97 575.392C1088.26 576.705 1088.3 578.065 1088.07 579.391C1087.84 580.718 1087.35 581.986 1086.62 583.122V583.122Z" fill="#6C63FF"/>
<path id="Vector_41" opacity="0.3" d="M1086.62 583.122C1085.54 584.833 1083.97 586.184 1082.12 587.005C1080.27 587.826 1078.22 588.08 1076.23 587.735C1074.23 587.39 1072.38 586.461 1070.92 585.066C1069.45 583.671 1068.43 581.873 1067.98 579.898C1067.54 577.923 1067.69 575.861 1068.41 573.971C1069.14 572.082 1070.41 570.45 1072.07 569.282C1073.72 568.114 1075.68 567.463 1077.71 567.41C1079.73 567.358 1081.72 567.906 1083.44 568.987C1084.58 569.703 1085.56 570.638 1086.34 571.737C1087.12 572.836 1087.67 574.078 1087.97 575.392C1088.26 576.705 1088.3 578.065 1088.07 579.391C1087.84 580.718 1087.35 581.986 1086.62 583.122V583.122Z" fill="white"/>
<path id="Vector_42" d="M1129.9 549.376C1128.13 552.217 1125.78 554.65 1123 556.516C1121.8 557.318 1120.53 558.01 1119.21 558.585C1116.49 559.741 1113.62 560.506 1110.69 560.856C1110.18 560.925 1109.63 560.984 1108.9 561.051C1108 561.12 1107.02 561.167 1105.91 561.187C1103.97 561.208 1102.02 561.339 1100.09 561.581C1098.96 561.692 1097.86 561.985 1096.83 562.449C1095.44 563.185 1093.7 565.206 1091.64 568.456L1091.31 568.992L1076.85 559.854L1078.43 557.344C1079.67 555.381 1080.77 553.76 1081.77 552.38C1082.65 551.119 1083.61 549.907 1084.63 548.749C1085.49 547.706 1086.52 546.823 1087.69 546.142C1089.64 545.16 1093.29 544.457 1098.84 543.987C1099.07 543.971 1099.31 543.949 1099.56 543.931C1099.78 543.922 1100 543.904 1100.23 543.884C1102.12 543.782 1103.98 543.478 1105.8 542.978C1106.35 542.808 1106.88 542.605 1107.4 542.368L1107.54 542.305C1109.32 541.347 1110.81 539.915 1111.82 538.166C1112.1 537.737 1112.35 537.286 1112.55 536.82C1113.44 535.045 1113.65 533.005 1113.13 531.089C1112.57 529.012 1111.29 527.199 1109.53 525.963C1109.32 525.796 1109.1 525.655 1108.88 525.516C1108.03 524.971 1107.12 524.533 1106.16 524.213C1104.36 523.613 1102.42 523.594 1100.61 524.158C1099.65 524.46 1098.73 524.879 1097.87 525.406C1094.75 527.528 1091.98 530.116 1089.66 533.079L1089.25 533.609L1077.93 521.381L1081.72 515.379C1081.94 515.179 1082.16 514.981 1082.38 514.793C1085.15 512.332 1088.33 510.371 1091.77 508.997C1093.24 508.417 1094.76 507.976 1096.3 507.68C1096.68 507.596 1097.08 507.53 1097.47 507.469C1100 507.082 1102.58 507.035 1105.13 507.328L1105.35 507.356C1110.13 507.985 1114.71 509.679 1118.75 512.313C1119.18 512.581 1119.67 512.902 1120.15 513.24C1124.13 515.903 1127.47 519.43 1129.91 523.558C1130.99 525.42 1131.87 527.401 1132.5 529.462C1134.38 535.085 1134.01 541.22 1131.45 546.571C1130.99 547.536 1130.48 548.473 1129.9 549.376Z" fill="#6C63FF"/>
<path id="Vector_43" opacity="0.3" d="M1129.9 549.376C1128.13 552.217 1125.78 554.65 1123 556.516C1121.8 557.318 1120.53 558.01 1119.21 558.585C1116.49 559.741 1113.62 560.506 1110.69 560.856C1110.18 560.925 1109.63 560.984 1108.9 561.051C1108 561.12 1107.02 561.167 1105.91 561.187C1103.97 561.208 1102.02 561.339 1100.09 561.581C1098.96 561.692 1097.86 561.985 1096.83 562.449C1095.44 563.185 1093.7 565.206 1091.64 568.456L1091.31 568.992L1076.85 559.854L1078.43 557.344C1079.67 555.381 1080.77 553.76 1081.77 552.38C1082.65 551.119 1083.61 549.907 1084.63 548.749C1085.49 547.706 1086.52 546.823 1087.69 546.142C1089.64 545.16 1093.29 544.457 1098.84 543.987C1099.07 543.971 1099.31 543.949 1099.56 543.931C1099.78 543.922 1100 543.904 1100.23 543.884C1102.12 543.782 1103.98 543.478 1105.8 542.978C1106.35 542.808 1106.88 542.605 1107.4 542.368L1107.54 542.305C1109.32 541.347 1110.81 539.915 1111.82 538.166C1112.1 537.737 1112.35 537.286 1112.55 536.82C1113.44 535.045 1113.65 533.005 1113.13 531.089C1112.57 529.012 1111.29 527.199 1109.53 525.963C1109.32 525.796 1109.1 525.655 1108.88 525.516C1108.03 524.971 1107.12 524.533 1106.16 524.213C1104.36 523.613 1102.42 523.594 1100.61 524.158C1099.65 524.46 1098.73 524.879 1097.87 525.406C1094.75 527.528 1091.98 530.116 1089.66 533.079L1089.25 533.609L1077.93 521.381L1081.72 515.379C1081.94 515.179 1082.16 514.981 1082.38 514.793C1085.15 512.332 1088.33 510.371 1091.77 508.997C1093.24 508.417 1094.76 507.976 1096.3 507.68C1096.68 507.596 1097.08 507.53 1097.47 507.469C1100 507.082 1102.58 507.035 1105.13 507.328L1105.35 507.356C1110.13 507.985 1114.71 509.679 1118.75 512.313C1119.18 512.581 1119.67 512.902 1120.15 513.24C1124.13 515.903 1127.47 519.43 1129.91 523.558C1130.99 525.42 1131.87 527.401 1132.5 529.462C1134.38 535.085 1134.01 541.22 1131.45 546.571C1130.99 547.536 1130.48 548.473 1129.9 549.376Z" fill="white"/>
<path id="Vector_44" d="M1080.72 579.394C1079.64 581.104 1078.07 582.456 1076.22 583.277C1074.37 584.098 1072.32 584.352 1070.33 584.006C1068.33 583.661 1066.48 582.733 1065.02 581.338C1063.55 579.943 1062.53 578.144 1062.08 576.17C1061.64 574.195 1061.79 572.132 1062.52 570.243C1063.24 568.353 1064.51 566.721 1066.17 565.554C1067.82 564.386 1069.78 563.734 1071.81 563.682C1073.83 563.629 1075.82 564.178 1077.54 565.258C1078.68 565.975 1079.66 566.909 1080.44 568.008C1081.22 569.108 1081.77 570.35 1082.07 571.663C1082.37 572.977 1082.4 574.336 1082.17 575.663C1081.94 576.99 1081.45 578.258 1080.72 579.394Z" fill="white"/>
<path id="Vector_45" d="M1124 545.647C1122.23 548.488 1119.88 550.922 1117.1 552.788C1115.9 553.589 1114.63 554.281 1113.31 554.857C1110.59 556.012 1107.72 556.777 1104.79 557.127C1104.28 557.196 1103.73 557.255 1103 557.322C1102.1 557.391 1101.12 557.438 1100.01 557.458C1098.07 557.479 1096.12 557.61 1094.19 557.852C1093.06 557.963 1091.96 558.256 1090.93 558.72C1089.54 559.456 1087.8 561.477 1085.74 564.727L1085.41 565.263L1070.95 556.125L1072.53 553.615C1073.77 551.652 1074.87 550.031 1075.87 548.651C1076.75 547.39 1077.71 546.178 1078.73 545.021C1079.59 543.977 1080.62 543.095 1081.79 542.413C1083.74 541.431 1087.39 540.728 1092.94 540.258C1093.17 540.242 1093.41 540.22 1093.66 540.202C1093.88 540.193 1094.1 540.175 1094.33 540.155C1096.22 540.054 1098.08 539.75 1099.9 539.249C1100.45 539.08 1100.98 538.876 1101.5 538.639L1101.64 538.576C1103.42 537.618 1104.91 536.186 1105.92 534.438C1106.2 534.008 1106.45 533.558 1106.66 533.091C1107.54 531.316 1107.75 529.276 1107.23 527.36C1106.67 525.284 1105.39 523.47 1103.63 522.234C1103.42 522.067 1103.2 521.926 1102.98 521.787C1102.13 521.242 1101.22 520.804 1100.26 520.484C1098.46 519.884 1096.52 519.865 1094.71 520.429C1093.75 520.731 1092.83 521.15 1091.97 521.677C1089.79 522.992 1087.55 525.148 1085.31 528.081L1084.9 528.61L1070.97 516.753L1071.38 516.27C1072.94 514.401 1074.65 512.66 1076.48 511.064C1079.25 508.603 1082.43 506.642 1085.87 505.268C1087.34 504.688 1088.86 504.247 1090.4 503.952C1090.78 503.867 1091.18 503.801 1091.57 503.74C1094.1 503.353 1096.68 503.306 1099.23 503.599L1099.45 503.627C1104.23 504.256 1108.81 505.95 1112.85 508.585C1113.28 508.852 1113.77 509.173 1114.25 509.512C1118.23 512.175 1121.57 515.701 1124.01 519.829C1125.09 521.691 1125.97 523.672 1126.6 525.733C1128.49 531.356 1128.11 537.492 1125.55 542.843C1125.09 543.807 1124.58 544.744 1124 545.647V545.647Z" fill="white"/>
</g>
</g>
</g>
<g id="Group 52">
<path id="Vector_46" d="M915.84 638.462C916.285 639.633 916.373 640.909 916.093 642.13C915.813 643.35 915.177 644.46 914.267 645.32C913.356 646.179 912.211 646.75 910.976 646.958C909.741 647.167 908.472 647.005 907.329 646.493C906.186 645.981 905.221 645.142 904.555 644.081C903.889 643.02 903.553 641.786 903.588 640.534C903.624 639.282 904.029 638.069 904.754 637.048C905.479 636.026 906.49 635.243 907.66 634.796C908.438 634.497 909.267 634.355 910.099 634.378C910.932 634.401 911.752 634.588 912.512 634.928C913.272 635.269 913.958 635.757 914.529 636.363C915.1 636.97 915.546 637.683 915.84 638.462V638.462Z" fill="#6C63FF"/>
<path id="Vector_47" opacity="0.3" d="M915.84 638.462C916.285 639.633 916.373 640.909 916.093 642.13C915.813 643.35 915.177 644.46 914.267 645.32C913.356 646.179 912.211 646.75 910.976 646.958C909.741 647.167 908.472 647.005 907.329 646.493C906.186 645.981 905.221 645.142 904.555 644.081C903.889 643.02 903.553 641.786 903.588 640.534C903.624 639.282 904.029 638.069 904.754 637.048C905.479 636.026 906.49 635.243 907.66 634.796C908.438 634.497 909.267 634.355 910.099 634.378C910.932 634.401 911.752 634.588 912.512 634.928C913.272 635.269 913.958 635.757 914.529 636.363C915.1 636.97 915.546 637.683 915.84 638.462V638.462Z" fill="white"/>
<path id="Vector_48" d="M915.191 604.518C915.939 606.449 916.271 608.517 916.163 610.586C916.115 611.477 915.987 612.362 915.781 613.23C915.344 615.005 914.659 616.708 913.744 618.29C913.589 618.568 913.415 618.861 913.179 619.245C912.88 619.716 912.539 620.22 912.137 620.776C911.425 621.747 910.768 622.759 910.171 623.806C909.809 624.404 909.546 625.057 909.392 625.74C909.242 626.701 909.596 628.313 910.442 630.536L910.582 630.902L900.695 634.67L900.041 632.953C899.529 631.611 899.132 630.469 898.82 629.462C898.525 628.555 898.28 627.632 898.085 626.697C897.887 625.886 897.834 625.046 897.929 624.216C898.166 622.886 899.172 620.819 900.998 617.897C901.078 617.774 901.155 617.648 901.237 617.521C901.315 617.407 901.389 617.291 901.464 617.169C902.113 616.199 902.655 615.161 903.082 614.075C903.201 613.742 903.299 613.402 903.375 613.056L903.394 612.965C903.581 611.727 903.422 610.462 902.934 609.31C902.824 609.013 902.692 608.725 902.539 608.448C901.99 607.35 901.056 606.492 899.915 606.038C898.678 605.547 897.308 605.504 896.043 605.917C895.879 605.962 895.731 606.015 895.581 606.072C894.995 606.291 894.439 606.582 893.925 606.938C892.961 607.606 892.231 608.56 891.839 609.665C891.632 610.253 891.498 610.864 891.44 611.484C891.335 613.813 891.589 616.145 892.192 618.397L892.302 618.796L882.05 619.863L880.486 615.759C880.467 615.578 880.452 615.394 880.442 615.213C880.252 612.929 880.459 610.628 881.056 608.415C881.313 607.474 881.657 606.559 882.085 605.683C882.183 605.465 882.297 605.246 882.412 605.03C883.161 603.63 884.093 602.337 885.184 601.184L885.281 601.085C887.366 598.951 889.903 597.312 892.706 596.29C892.996 596.179 893.338 596.053 893.683 595.943C896.48 594.957 899.463 594.614 902.41 594.94C903.736 595.091 905.04 595.395 906.296 595.845C909.778 596.998 912.676 599.46 914.376 602.711C914.683 603.296 914.955 603.9 915.191 604.518Z" fill="#6C63FF"/>
<path id="Vector_49" opacity="0.3" d="M915.191 604.518C915.939 606.449 916.271 608.517 916.163 610.586C916.115 611.477 915.987 612.362 915.781 613.23C915.344 615.005 914.659 616.708 913.744 618.29C913.589 618.568 913.415 618.861 913.179 619.245C912.88 619.716 912.539 620.22 912.137 620.776C911.425 621.747 910.768 622.759 910.171 623.806C909.809 624.404 909.546 625.057 909.392 625.74C909.242 626.701 909.596 628.313 910.442 630.536L910.582 630.902L900.695 634.67L900.041 632.953C899.529 631.611 899.132 630.469 898.82 629.462C898.525 628.555 898.28 627.632 898.085 626.697C897.887 625.886 897.834 625.046 897.929 624.216C898.166 622.886 899.172 620.819 900.998 617.897C901.078 617.774 901.155 617.648 901.237 617.521C901.315 617.407 901.389 617.291 901.464 617.169C902.113 616.199 902.655 615.161 903.082 614.075C903.201 613.742 903.299 613.402 903.375 613.056L903.394 612.965C903.581 611.727 903.422 610.462 902.934 609.31C902.824 609.013 902.692 608.725 902.539 608.448C901.99 607.35 901.056 606.492 899.915 606.038C898.678 605.547 897.308 605.504 896.043 605.917C895.879 605.962 895.731 606.015 895.581 606.072C894.995 606.291 894.439 606.582 893.925 606.938C892.961 607.606 892.231 608.56 891.839 609.665C891.632 610.253 891.498 610.864 891.44 611.484C891.335 613.813 891.589 616.145 892.192 618.397L892.302 618.796L882.05 619.863L880.486 615.759C880.467 615.578 880.452 615.394 880.442 615.213C880.252 612.929 880.459 610.628 881.056 608.415C881.313 607.474 881.657 606.559 882.085 605.683C882.183 605.465 882.297 605.246 882.412 605.03C883.161 603.63 884.093 602.337 885.184 601.184L885.281 601.085C887.366 598.951 889.903 597.312 892.706 596.29C892.996 596.179 893.338 596.053 893.683 595.943C896.48 594.957 899.463 594.614 902.41 594.94C903.736 595.091 905.04 595.395 906.296 595.845C909.778 596.998 912.676 599.46 914.376 602.711C914.683 603.296 914.955 603.9 915.191 604.518Z" fill="white"/>
<path id="Vector_50" d="M911.806 639.999C912.251 641.17 912.339 642.446 912.059 643.667C911.779 644.887 911.143 645.998 910.232 646.857C909.322 647.717 908.176 648.287 906.942 648.496C905.707 648.704 904.438 648.542 903.295 648.03C902.152 647.518 901.187 646.679 900.521 645.618C899.855 644.557 899.519 643.323 899.554 642.071C899.59 640.819 899.995 639.606 900.72 638.585C901.445 637.564 902.456 636.78 903.626 636.333C904.403 636.034 905.232 635.892 906.065 635.915C906.898 635.938 907.718 636.125 908.478 636.465C909.238 636.806 909.924 637.294 910.495 637.9C911.066 638.507 911.511 639.22 911.806 639.999Z" fill="white"/>
<path id="Vector_51" d="M911.156 606.055C911.905 607.986 912.236 610.054 912.129 612.123C912.08 613.014 911.952 613.899 911.746 614.767C911.31 616.542 910.624 618.245 909.709 619.827C909.555 620.105 909.381 620.398 909.145 620.782C908.846 621.253 908.504 621.757 908.103 622.313C907.39 623.284 906.734 624.296 906.137 625.343C905.774 625.941 905.511 626.595 905.358 627.277C905.207 628.238 905.561 629.85 906.408 632.073L906.548 632.439L896.66 636.207L896.006 634.49C895.495 633.148 895.097 632.006 894.785 630.999C894.491 630.092 894.245 629.169 894.051 628.234C893.852 627.423 893.8 626.583 893.895 625.753C894.132 624.423 895.137 622.356 896.964 619.434C897.043 619.312 897.121 619.185 897.203 619.058C897.281 618.944 897.354 618.828 897.43 618.706C898.078 617.736 898.621 616.698 899.048 615.612C899.167 615.279 899.264 614.939 899.34 614.593L899.36 614.502C899.547 613.264 899.387 611.999 898.9 610.847C898.79 610.55 898.658 610.262 898.504 609.985C897.955 608.887 897.021 608.029 895.88 607.575C894.643 607.084 893.273 607.041 892.008 607.454C891.845 607.499 891.697 607.552 891.546 607.609C890.961 607.828 890.404 608.119 889.89 608.475C888.926 609.143 888.197 610.097 887.804 611.202C887.597 611.79 887.463 612.401 887.405 613.022C887.247 614.59 887.483 616.499 888.105 618.694L888.215 619.093L877.18 621.588L877.093 621.206C876.745 619.741 876.516 618.251 876.407 616.75C876.217 614.466 876.425 612.166 877.021 609.952C877.278 609.011 877.623 608.096 878.051 607.22C878.148 607.002 878.262 606.783 878.377 606.567C879.127 605.168 880.059 603.874 881.15 602.721L881.246 602.622C883.331 600.488 885.869 598.849 888.671 597.827C888.961 597.716 889.304 597.59 889.648 597.48C892.445 596.494 895.428 596.151 898.376 596.477C899.701 596.628 901.005 596.932 902.261 597.382C905.744 598.535 908.641 600.997 910.342 604.248C910.649 604.833 910.921 605.437 911.156 606.055V606.055Z" fill="white"/>
</g>
</g>
</g>
<defs>
<clipPath id="clip0">
<rect width="1440" height="1024" fill="white"/>
</clipPath>
<clipPath id="clip1">
<rect x="855" y="497" width="887.5" height="444.01" fill="white"/>
</clipPath>
</defs>
</svg>
