<svg width="1440" height="1024" viewBox="0 0 1440 1024" fill="none" xmlns="http://www.w3.org/2000/svg">
<g id="home-svg">
<g clip-path="url(#clip0)">
<rect width="1440" height="1024" fill="white"/>
<rect id="Rectangle 276" x="852" width="588" height="1024" fill="#6A5ACD"/>
<g id="home-background">
<g id="btm-leaves">
<g id="bottom-right">
<mask id="path-5-inside-1" fill="white">
<path d="M938.21 566.06L934.741 560.698C935.77 557.856 936.958 555.074 938.3 552.366L940.544 554.177L938.767 551.432C940.46 548.1 941.792 546 941.792 546C941.792 546 948.751 556.965 951.075 568.575L946.623 575.455L951.552 571.474C951.727 572.827 951.818 574.189 951.822 575.553C951.822 589.302 947.332 600.448 941.792 600.448C936.253 600.448 931.762 589.302 931.762 575.553C931.866 571.178 932.64 566.845 934.057 562.705L938.21 566.06Z"/>
</mask>
<path d="M938.21 566.06L934.741 560.698C935.77 557.856 936.958 555.074 938.3 552.366L940.544 554.177L938.767 551.432C940.46 548.1 941.792 546 941.792 546C941.792 546 948.751 556.965 951.075 568.575L946.623 575.455L951.552 571.474C951.727 572.827 951.818 574.189 951.822 575.553C951.822 589.302 947.332 600.448 941.792 600.448C936.253 600.448 931.762 589.302 931.762 575.553C931.866 571.178 932.64 566.845 934.057 562.705L938.21 566.06Z" fill="#6A5ACD" stroke="white" stroke-width="2" mask="url(#path-5-inside-1)"/>
</g>
<g id="bottom-left">
<mask id="path-6-inside-2" fill="white">
<path d="M913.654 577.98L907.409 576.642C906.126 573.905 905 571.097 904.034 568.233L906.901 567.928L903.704 567.243C902.545 563.689 902.002 561.263 902.002 561.263C902.002 561.263 914.676 564.096 924.529 570.661L926.246 578.675L926.916 572.375C927.997 573.207 929.024 574.106 929.991 575.067C939.713 584.79 944.42 595.847 940.503 599.764C936.586 603.681 925.529 598.974 915.807 589.252C912.787 586.085 910.27 582.474 908.345 578.545L913.654 577.98Z"/>
</mask>
<path d="M913.654 577.98L907.409 576.642C906.126 573.905 905 571.097 904.034 568.233L906.901 567.928L903.704 567.243C902.545 563.689 902.002 561.263 902.002 561.263C902.002 561.263 914.676 564.096 924.529 570.661L926.246 578.675L926.916 572.375C927.997 573.207 929.024 574.106 929.991 575.067C939.713 584.79 944.42 595.847 940.503 599.764C936.586 603.681 925.529 598.974 915.807 589.252C912.787 586.085 910.27 582.474 908.345 578.545L913.654 577.98Z" fill="#6A5ACD" stroke="white" stroke-width="2" mask="url(#path-6-inside-2)"/>
</g>
</g>
<g id="main">
<g clip-path="url(#clip1)">
<path id="Vector" d="M912.011 631.969C926.492 632.895 942.271 631.915 959.057 631.969V593.537C944.265 595.839 928.492 595.603 912.011 593.537V631.969Z" fill="#3F3D56"/>
<path id="Vector_2" d="M313.838 644.031H509.35V897.585H313.838V644.031Z" fill="#E6E6E6"/>
<path id="Vector_3" d="M907.501 657.269H917.684V897.585H907.501V657.269Z" fill="#E6E6E6"/>
<path id="Vector_4" d="M313.839 626.72H1010.35V647.086H313.839V626.72Z" fill="#E6E6E6"/>
<path id="Vector_5" d="M902.41 647.086H922.775V667.452H902.41V647.086Z" fill="#E6E6E6"/>
<path id="Vector_6" d="M396.193 658.796L397.339 663.379H425.851L427.569 658.796H500.186V705.638H323.004V658.796H396.193Z" fill="#3F3D56"/>
<path id="Vector_7" d="M396.193 717.857L397.339 722.439H425.851L427.569 717.857H500.186V764.698H323.004V717.857H396.193Z" fill="#3F3D56"/>
<path id="Vector_8" d="M396.193 776.918L397.339 781.5H425.851L427.569 776.918H500.186V823.759H323.004V776.918H396.193Z" fill="#3F3D56"/>
<path id="Vector_9" d="M396.193 835.979L397.339 840.561H425.851L427.569 835.979H500.186V882.82H323.004V835.979H396.193Z" fill="#3F3D56"/>
<path id="Vector_10" d="M632.564 623.665H692.643L690.607 597.19H634.601L632.564 623.665Z" fill="#E6E6E6"/>
<path id="Vector_11" d="M628.49 620.611H695.697V626.72H628.49V620.611Z" fill="#E6E6E6"/>
<path id="Vector_12" d="M547.536 426.627H777.16C778.78 426.627 780.334 427.271 781.48 428.416C782.626 429.562 783.27 431.116 783.27 432.737V572.751H541.426V432.737C541.426 431.116 542.07 429.562 543.216 428.416C544.361 427.271 545.916 426.627 547.536 426.627Z" fill="#3F3D56"/>
<path id="Vector_13" d="M783.27 572.751V595.663C783.27 597.283 782.626 598.837 781.48 599.983C780.334 601.129 778.78 601.772 777.16 601.772H547.536C545.916 601.772 544.361 601.129 543.216 599.983C542.07 598.837 541.426 597.283 541.426 595.663V572.751H783.27Z" fill="#E6E6E6"/>
<path id="Vector_14" d="M553.137 439.355H771.051V561.55H553.137V439.355Z" fill="white"/>
<path id="Vector_15" d="M662.093 593.117C658.719 593.117 655.984 590.382 655.984 587.007C655.984 583.633 658.719 580.897 662.093 580.897C665.468 580.897 668.203 583.633 668.203 587.007C668.203 590.382 665.468 593.117 662.093 593.117Z" fill="#3F3D56"/>
<path id="Vector_16" d="M145.313 896.058C167.567 897.481 191.815 895.975 217.611 896.058V836.997C194.881 840.535 170.641 840.172 145.313 836.997V896.058Z" fill="#3F3D56"/>
<path id="Vector_17" d="M641.627 473.848H700.383V477.221H641.627V473.848Z" fill="#3F3D56"/>
<path id="Vector_18" d="M609.651 486.151H700.383V489.524H609.651V486.151Z" fill="#6A5ACD"/>
<path id="Vector_19" d="M626.438 497.742H700.383V501.115H626.438V497.742Z" fill="#6A5ACD"/>
<path id="Vector_20" d="M657.215 509.29H700.383V512.663H657.215V509.29Z" fill="#3F3D56"/>
<path id="Vector_21" d="M635.231 520.837H700.383V524.21H635.231V520.837Z" fill="#3F3D56"/>
<path id="Vector_22" d="M719.969 472.649H727.164V479.843H719.969V472.649Z" fill="#3F3D56"/>
<path id="Vector_23" d="M719.969 484.24H727.164V491.435H719.969V484.24Z" fill="#6A5ACD"/>
<path id="Vector_24" d="M719.969 495.831H727.164V503.026H719.969V495.831Z" fill="#6A5ACD"/>
<path id="Vector_25" d="M719.969 507.423H727.164V514.617H719.969V507.423Z" fill="#3F3D56"/>
<path id="Vector_26" d="M719.969 519.014H727.164V526.209H719.969V519.014Z" fill="#3F3D56"/>
<path id="Vector_27" d="M563.231 467.463H594.064C596.169 455.299 596.169 442.864 594.064 430.7H563.231C566.705 442.708 566.705 455.455 563.231 467.463Z" fill="#6A5ACD"/>
<path id="Vector_28" d="M787.584 541.144L800.269 538.052C805.11 538.059 809.891 536.988 814.267 534.92C818.643 532.851 822.505 529.835 825.572 526.091C828.64 522.346 830.837 517.967 832.004 513.269C833.171 508.571 833.279 503.673 832.32 498.928V498.928C832.334 487.608 827.851 476.745 819.856 468.73C811.861 460.715 801.01 456.204 789.689 456.19H789.689C778.368 456.176 767.506 460.659 759.491 468.654C751.476 476.649 746.965 487.5 746.951 498.821V498.821C739.758 523.849 762.284 547.312 787.584 541.144Z" fill="#2F2E41"/>
<path id="Vector_29" d="M773.728 545.607C756.406 545.607 742.364 531.565 742.364 514.243C742.364 496.922 756.406 482.88 773.728 482.88C791.05 482.88 805.092 496.922 805.092 514.243C805.092 531.565 791.05 545.607 773.728 545.607Z" fill="#FFB8B8"/>
<path id="Vector_30" d="M794.182 530.607C794.182 530.607 803.728 563.334 809.182 566.062C814.637 568.789 765.546 572.88 765.546 572.88C765.546 572.88 766.91 541.516 764.182 538.789C761.455 536.061 794.182 530.607 794.182 530.607Z" fill="#FFB8B8"/>
<path id="Vector_31" d="M745.092 732.426C745.092 732.426 683.728 726.971 675.547 747.426C667.365 767.88 681.001 889.244 681.001 889.244H706.91V789.698C706.91 789.698 817.383 758.297 817.383 747.387C817.383 736.478 745.092 732.426 745.092 732.426Z" fill="#2F2E41"/>
<path id="Vector_32" d="M685.091 883.789L671.454 889.244C671.454 889.244 655.091 887.88 661.909 900.153C663.86 903.716 666.591 906.792 669.896 909.153C673.201 911.514 676.997 913.099 681 913.789C681 913.789 706.909 923.335 708.272 913.789C709.636 904.244 701.454 885.153 701.454 885.153L685.091 883.789Z" fill="#2F2E41"/>
<path id="Vector_33" d="M779.183 732.426C779.183 732.426 717.82 726.971 709.638 747.426C701.456 767.88 715.092 889.244 715.092 889.244H741.002V789.698C741.002 789.698 819.42 771.534 819.42 760.625C819.42 755.5 824.763 729.454 815.347 723.967C804.719 717.774 779.183 732.426 779.183 732.426Z" fill="#2F2E41"/>
<path id="Vector_34" d="M719.182 883.789L705.546 889.244C705.546 889.244 689.182 887.88 696.001 900.153C697.952 903.716 700.682 906.792 703.988 909.153C707.293 911.514 711.089 913.099 715.092 913.789C715.092 913.789 741.001 923.335 742.364 913.789C743.728 904.244 735.546 885.153 735.546 885.153L719.182 883.789Z" fill="#2F2E41"/>
<path id="Vector_35" d="M807.819 561.971L766.839 566.425C760.514 567.113 754.569 569.781 749.851 574.049C745.133 578.317 741.885 583.967 740.57 590.192L724.637 665.607C724.637 665.607 719.183 740.607 730.092 744.698C741.001 748.789 756.001 728.335 776.456 731.062C796.91 733.789 823.501 739.926 823.501 739.926C823.501 739.926 827.724 605.678 828.274 594.698C829.373 572.747 807.819 561.971 807.819 561.971Z" fill="#A1A3CF"/>
<path id="Vector_36" d="M710.746 736.322L693.923 746.23C693.923 746.23 663.74 741.899 664.682 752.508C665.624 763.116 698.571 761.066 698.571 761.066L718.846 748.573L710.746 736.322Z" fill="#FFB8B8"/>
<path id="Vector_37" d="M834.606 488.735C823.416 488.735 814.346 479.664 814.346 468.475C814.346 457.286 823.416 448.215 834.606 448.215C845.795 448.215 854.865 457.286 854.865 468.475C854.865 479.664 845.795 488.735 834.606 488.735Z" fill="#2F2E41"/>
<path id="Vector_38" d="M815.912 457.584C815.914 454.587 816.582 451.628 817.866 448.92C819.151 446.213 821.02 443.824 823.339 441.926C825.659 440.029 828.371 438.67 831.279 437.947C834.188 437.225 837.22 437.157 840.158 437.748C837.566 436.523 834.743 435.862 831.877 435.81C829.01 435.758 826.165 436.314 823.53 437.444C820.894 438.573 818.529 440.249 816.59 442.361C814.651 444.473 813.182 446.973 812.282 449.695C811.381 452.416 811.068 455.299 811.365 458.15C811.661 461.002 812.56 463.758 814.001 466.237C815.442 468.715 817.393 470.859 819.725 472.527C822.057 474.195 824.717 475.349 827.528 475.912C824.052 474.275 821.114 471.682 819.056 468.436C816.999 465.191 815.909 461.427 815.912 457.584V457.584Z" fill="#2F2E41"/>
<path id="Vector_39" d="M798.531 469.074L771.218 464.045L750.213 477.21C745.049 480.446 740.921 485.096 738.32 490.608C735.718 496.119 734.752 502.261 735.536 508.305L756.573 502.973L761.284 491.161L766.894 500.357L796.228 538.107L812.698 527.619L827.381 504.609L798.531 469.074Z" fill="#2F2E41"/>
<path id="Vector_40" d="M776.039 573.571L762.403 566.752C762.403 566.752 733.766 570.843 728.312 589.934C722.857 609.025 698.312 741.298 698.312 741.298L721.493 752.207L754.221 671.753L776.039 573.571Z" fill="#A1A3CF"/>
<path id="Vector_41" opacity="0.2" d="M764.43 627.23L750.782 680.205L726.58 739.701L727.419 741.761L756.284 681.199L764.43 627.23Z" fill="black"/>
<path id="Vector_42" d="M866.263 919.379L871.076 917.721L824.451 779.231L817.711 781.553L866.263 919.379Z" fill="#3F3D56"/>
<path id="Vector_43" d="M688.056 919.379L683.242 917.721L729.868 779.231L736.607 781.553L688.056 919.379Z" fill="#3F3D56"/>
<path id="Vector_44" d="M786.578 947.981L781.487 947.999L779.905 786.107L787.033 786.082L786.578 947.981Z" fill="#3F3D56"/>
<g id="Vector_45">
<mask id="path-52-inside-3" fill="white">
<path d="M878.048 697.856L864.082 754.301C862.126 762.206 858.054 769.429 852.303 775.194C846.553 780.958 839.34 785.048 831.44 787.023H831.44C792.491 796.76 751.713 796.497 712.893 786.259L692.042 780.76C679.926 777.565 670.815 767.159 669.953 754.659C669.604 750.239 670.404 745.805 672.276 741.787C672.358 741.614 672.44 741.442 672.522 741.272C675.241 735.686 679.436 730.95 684.653 727.577C689.87 724.204 695.91 722.321 702.12 722.134L724.209 721.421L804.654 685.781C804.654 685.781 832.321 671.728 855.065 670.155C870.086 669.116 881.664 683.24 878.048 697.856Z"/>
</mask>
<path d="M878.048 697.856L864.082 754.301C862.126 762.206 858.054 769.429 852.303 775.194C846.553 780.958 839.34 785.048 831.44 787.023H831.44C792.491 796.76 751.713 796.497 712.893 786.259L692.042 780.76C679.926 777.565 670.815 767.159 669.953 754.659C669.604 750.239 670.404 745.805 672.276 741.787C672.358 741.614 672.44 741.442 672.522 741.272C675.241 735.686 679.436 730.95 684.653 727.577C689.87 724.204 695.91 722.321 702.12 722.134L724.209 721.421L804.654 685.781C804.654 685.781 832.321 671.728 855.065 670.155C870.086 669.116 881.664 683.24 878.048 697.856Z" fill="#6A5ACD" stroke="white" stroke-width="2" mask="url(#path-52-inside-3)"/>
</g>
<path id="Vector_46" d="M387.665 520.309H467.092V628.248H387.665V520.309Z" fill="#E6E6E6"/>
<path id="Vector_47" d="M396.829 532.764H457.926V615.793H396.829V532.764Z" fill="white"/>
<path id="Vector_48" d="M404.279 554.492H433.881V557.865H404.279V554.492Z" fill="#3F3D56"/>
<path id="Vector_49" d="M443.282 552.625H450.477V559.819H443.282V552.625Z" fill="#3F3D56"/>
<path id="Vector_50" d="M404.279 568.748H433.881V572.121H404.279V568.748Z" fill="#3F3D56"/>
<path id="Vector_51" d="M443.282 566.881H450.477V574.075H443.282V566.881Z" fill="#3F3D56"/>
<path id="Vector_52" d="M404.279 583.004H433.881V586.377H404.279V583.004Z" fill="#3F3D56"/>
<path id="Vector_53" d="M443.282 581.137H450.477V588.331H443.282V581.137Z" fill="#3F3D56"/>
<path id="Vector_54" d="M424.324 526.419C424.324 524.732 425.692 523.364 427.379 523.364C429.066 523.364 430.434 524.732 430.434 526.419C430.434 528.106 429.066 529.474 427.379 529.474C425.692 529.474 424.324 528.106 424.324 526.419Z" fill="#3F3D56"/>
</g>
</g>
<g id="btm-shelf">
<path id="Vector_55" d="M1017.64 486.001C1025.46 486.498 1033.99 485.972 1043.05 486.001V465.373C1034.62 466.546 1026.07 466.546 1017.64 465.373V486.001Z" fill="#E6E6E6"/>
<path id="Vector_56" d="M973 481.508H1315V491H973V481.508Z" fill="#E6E6E6"/>
<path id="Vector_57" d="M1030.32 472.966C1019.77 472.966 1011.21 464.467 1011.21 453.983C1011.21 443.499 1019.77 435 1030.32 435C1040.87 435 1049.42 443.499 1049.42 453.983C1049.42 464.467 1040.87 472.966 1030.32 472.966Z" fill="#E6E6E6"/>
<path id="Vector_58" d="M1030.32 469.17C1021.88 469.17 1015.03 462.37 1015.03 453.983C1015.03 445.596 1021.88 438.797 1030.32 438.797C1038.76 438.797 1045.6 445.596 1045.6 453.983C1045.6 462.37 1038.76 469.17 1030.32 469.17Z" fill="white"/>
<path id="Vector_59" d="M1030.32 457.78C1028.21 457.78 1026.5 456.08 1026.5 453.983C1026.5 451.886 1028.21 450.187 1030.32 450.187C1032.43 450.187 1034.14 451.886 1034.14 453.983C1034.14 456.08 1032.43 457.78 1030.32 457.78Z" fill="#E6E6E6"/>
<path id="Vector_60" d="M1016.94 454.932V453.034H1032.23V454.932H1016.94Z" fill="#E6E6E6"/>
<path id="Vector_61" d="M1031.27 455.881H1029.36V440.695H1031.27V455.881Z" fill="#E6E6E6"/>
<path id="Vector_62" d="M1253.51 432.204H1266.15V481.921H1253.51V432.204Z" fill="#E6E6E6"/>
<path id="Vector_63" d="M1253.52 443.056H1266.16V448.812H1253.52V443.056Z" fill="#CCCCCC"/>
<path id="Vector_64" d="M1253.52 468.176H1266.16V473.933H1253.52V468.176Z" fill="#CCCCCC"/>
<path id="Vector_65" d="M1273.01 435.205H1285.65V484.923H1273.01V435.205Z" fill="#E6E6E6"/>
<path id="Vector_66" d="M1273.01 443.056H1285.65V448.812H1273.01V443.056Z" fill="#CCCCCC"/>
<path id="Vector_67" d="M1273.01 468.176H1285.65V473.933H1273.01V468.176Z" fill="#CCCCCC"/>
<path id="Vector_68" d="M1242.63 435L1253.96 440.573L1231.75 485.129L1220.43 479.556L1242.63 435Z" fill="#E6E6E6"/>
<path id="Vector_69" d="M1239.12 442.035L1250.45 447.608L1247.88 452.767L1236.55 447.194L1239.12 442.035Z" fill="#CCCCCC"/>
<path id="Vector_70" d="M1227.9 464.548L1239.23 470.12L1236.66 475.279L1225.33 469.707L1227.9 464.548Z" fill="#CCCCCC"/>
<path id="Vector_71" d="M1135.06 435.205H1147.7V484.923H1135.06V435.205Z" fill="#E6E6E6"/>
<path id="Vector_72" d="M1135.06 443.056H1147.7V448.812H1135.06V443.056Z" fill="#CCCCCC"/>
<path id="Vector_73" d="M1135.06 468.176H1147.7V473.933H1135.06V468.176Z" fill="#CCCCCC"/>
<path id="Vector_74" d="M1154.55 435.205H1167.19V484.923H1154.55V435.205Z" fill="#E6E6E6"/>
<path id="Vector_75" d="M1154.55 443.056H1167.19V448.812H1154.55V443.056Z" fill="#CCCCCC"/>
<path id="Vector_76" d="M1154.55 468.176H1167.19V473.933H1154.55V468.176Z" fill="#CCCCCC"/>
<path id="Vector_77" d="M1124.17 435L1135.5 440.573L1113.3 485.129L1101.97 479.556L1124.17 435Z" fill="#E6E6E6"/>
<path id="Vector_78" d="M1120.66 442.035L1131.99 447.608L1129.42 452.767L1118.09 447.194L1120.66 442.035Z" fill="#CCCCCC"/>
<path id="Vector_79" d="M1109.45 464.547L1120.78 470.12L1118.2 475.279L1106.88 469.707L1109.45 464.547Z" fill="#CCCCCC"/>
</g>
<g id="mid-shelf">
<path id="Vector_80" d="M974 359.508H1316V369H974V359.508Z" fill="#E6E6E6"/>
<g id="Group 47">
<path id="Vector_81" d="M1013.17 362.157C1022.03 362.72 1031.68 362.125 1041.95 362.157V338.796C1032.4 340.125 1022.72 340.125 1013.17 338.796V362.157Z" fill="#E6E6E6"/>
<path id="Vector_82" d="M1141.79 313.206H1154.43V362.923H1141.79V313.206Z" fill="#E6E6E6"/>
<path id="Vector_83" d="M1141.79 321.056H1154.43V326.812H1141.79V321.056Z" fill="#CCCCCC"/>
<path id="Vector_84" d="M1141.79 346.176H1154.43V351.933H1141.79V346.176Z" fill="#CCCCCC"/>
<path id="Vector_85" d="M1161.28 313.206H1173.92V362.923H1161.28V313.206Z" fill="#E6E6E6"/>
<path id="Vector_86" d="M1161.28 321.056H1173.92V326.812H1161.28V321.056Z" fill="#CCCCCC"/>
<path id="Vector_87" d="M1161.28 346.176H1173.92V351.933H1161.28V346.176Z" fill="#CCCCCC"/>
<path id="Vector_88" d="M1130.9 313L1142.23 318.573L1120.03 363.129L1108.7 357.556L1130.9 313Z" fill="#E6E6E6"/>
<path id="Vector_89" d="M1127.4 320.035L1138.72 325.608L1136.15 330.767L1124.82 325.194L1127.4 320.035Z" fill="#CCCCCC"/>
<path id="Vector_90" d="M1116.18 342.548L1127.51 348.12L1124.94 353.279L1113.61 347.707L1116.18 342.548Z" fill="#CCCCCC"/>
</g>
</g>
<g id="top-shelf">
<path id="Vector_91" d="M1126.78 239.021C1140.37 239.885 1155.17 238.97 1170.92 239.021V203.162C1157.04 205.311 1142.24 205.09 1126.78 203.162V239.021Z" fill="#E6E6E6"/>
<path id="Vector_92" d="M974 236.499L1316 236.499V246L974 246V236.499Z" fill="#E6E6E6"/>
<path id="Vector_93" d="M1000.75 190L1050.99 190V239.97L1000.75 239.97V190Z" fill="#E6E6E6"/>
<path id="Vector_94" d="M1010.8 199.994H1040.94V229.976H1010.8V199.994Z" fill="#CCCCCC"/>
<path id="Vector_95" d="M1032.22 210.058L1025.83 221.069L1019.43 232.08H1032.22H1045L1038.61 221.069L1032.22 210.058Z" fill="#E6E6E6"/>
<path id="Vector_96" d="M1021.11 212.162L1014.72 223.173L1008.33 234.184H1021.11H1033.89L1027.5 223.173L1021.11 212.162Z" fill="#E6E6E6"/>
<path id="Vector_97" d="M1016.61 208.936C1014.57 208.936 1012.91 207.288 1012.91 205.254C1012.91 203.221 1014.57 201.572 1016.61 201.572C1018.66 201.572 1020.32 203.221 1020.32 205.254C1020.32 207.288 1018.66 208.936 1016.61 208.936Z" fill="#E6E6E6"/>
<path id="Vector_98" d="M1254.86 190L1305.1 190V239.97L1254.86 239.97V190Z" fill="#E6E6E6"/>
<path id="Vector_99" d="M1264.91 199.994H1295.05V229.976H1264.91V199.994Z" fill="#CCCCCC"/>
<path id="Vector_100" d="M1286.33 210.058L1279.94 221.069L1273.54 232.08H1286.33H1299.11L1292.72 221.069L1286.33 210.058Z" fill="#E6E6E6"/>
<path id="Vector_101" d="M1275.22 212.162L1268.83 223.173L1262.44 234.184H1275.22H1288.01L1281.61 223.173L1275.22 212.162Z" fill="#E6E6E6"/>
<path id="Vector_102" d="M1270.73 208.936C1268.68 208.936 1267.02 207.288 1267.02 205.254C1267.02 203.221 1268.68 201.572 1270.73 201.572C1272.77 201.572 1274.43 203.221 1274.43 205.254C1274.43 207.288 1272.77 208.936 1270.73 208.936Z" fill="#E6E6E6"/>
</g>
<g id="stems">
<path id="Vector_103" d="M178.915 842.3H185.025L182.988 722.949H180.952L178.915 842.3Z" fill="#3F3D56"/>
<path id="Vector_104" d="M161.421 843.107H167.531L165.494 723.755H163.458L161.421 843.107Z" fill="#3F3D56"/>
<path id="Vector_105" d="M193.355 843.107H199.465L197.428 723.755H195.392L193.355 843.107Z" fill="#3F3D56"/>
</g>
<g id="big-leaves">
<path id="grey" d="M173.823 606.577L163.96 591.334C166.885 583.255 170.263 575.347 174.078 567.648L180.456 572.799L175.406 564.995C180.219 555.521 184.006 549.553 184.006 549.553C184.006 549.553 203.786 580.723 210.394 613.725L197.738 633.285L211.749 621.969C212.248 625.813 212.505 629.685 212.518 633.562C212.518 672.647 199.752 704.333 184.006 704.333C168.259 704.333 155.494 672.647 155.494 633.562C155.494 621.445 158.235 608.768 162.016 597.041L173.823 606.577Z" fill="#E6E6E6"/>
<path id="slate-left" d="M142.947 650.691L130.588 637.393C132.065 628.928 134.019 620.554 136.439 612.309L143.615 616.274L137.286 609.466C140.381 599.301 143.073 592.765 143.073 592.765C143.073 592.765 167.966 620.027 180.205 651.38L171.137 672.841L182.97 659.263C184.129 662.962 185.054 666.731 185.74 670.546C192.527 709.038 185.458 742.459 169.951 745.193C154.443 747.928 136.37 718.94 129.583 680.449C127.478 668.516 127.977 655.555 129.664 643.35L142.947 650.691Z" fill="#6A5ACD"/>
<path id="slate-right" d="M201.954 647.155L194.888 630.431C199.171 622.982 203.871 615.781 208.966 608.861L214.352 615.042L210.734 606.479C217.118 597.986 221.884 592.765 221.884 592.765C221.884 592.765 235.951 626.897 236.728 660.545L220.868 677.61L236.631 668.898C236.455 672.771 236.035 676.629 235.375 680.449C228.588 718.941 210.514 747.928 195.007 745.193C179.499 742.459 172.43 709.038 179.217 670.546C181.321 658.614 186.222 646.605 191.982 635.713L201.954 647.155Z" fill="#6A5ACD"/>
</g>
<g id="mid-leaves">
<path id="bottom-right_2" d="M1030.53 322.368L1028.37 319.062C1029.01 317.31 1029.75 315.595 1030.59 313.925L1031.98 315.042L1030.88 313.349C1031.93 311.295 1032.76 310 1032.76 310C1035.42 314.306 1037.37 319.005 1038.54 323.919L1035.76 328.161L1038.83 325.707C1038.94 326.541 1039 327.381 1039 328.221C1039 336.699 1036.21 343.571 1032.76 343.571C1029.31 343.571 1026.52 336.699 1026.52 328.221C1026.58 325.524 1027.06 322.853 1027.95 320.3L1030.53 322.368Z" fill="#E6E6E6"/>
<path id="middle-left" d="M1015.25 329.718L1011.36 328.893C1010.57 327.205 1009.86 325.474 1009.26 323.708L1011.05 323.52L1009.06 323.098C1008.34 320.907 1008 319.411 1008 319.411C1012.95 320.592 1017.68 322.548 1022.02 325.205L1023.08 330.146L1023.5 326.262C1024.17 326.775 1024.81 327.329 1025.42 327.922C1031.46 333.917 1034.39 340.734 1031.96 343.149C1029.52 345.564 1022.64 342.662 1016.59 336.668C1014.71 334.715 1013.14 332.489 1011.95 330.066L1015.25 329.718Z" fill="#E6E6E6"/>
</g>
<g id="top-leaves">
<path id="top-right" d="M1152.16 177.916L1148.89 172.86C1149.86 170.18 1150.98 167.557 1152.24 165.003L1154.36 166.711L1152.68 164.122C1154.28 160.98 1155.54 159 1155.54 159C1155.54 159 1162.1 169.34 1164.3 180.288L1160.1 186.776L1164.74 183.022C1164.91 184.298 1165 185.582 1165 186.868C1165 199.834 1160.76 210.345 1155.54 210.345C1150.31 210.345 1146.08 199.834 1146.08 186.868C1146.17 182.743 1146.9 178.657 1148.24 174.753L1152.16 177.916Z" fill="#E6E6E6"/>
<path id="top-left" d="M1128.99 189.157L1123.1 187.895C1121.89 185.314 1120.83 182.667 1119.92 179.966L1122.62 179.678L1119.61 179.032C1118.51 175.681 1118 173.393 1118 173.393C1118 173.393 1129.96 176.064 1139.25 182.255L1140.87 189.812L1141.5 183.871C1142.52 184.656 1143.49 185.504 1144.4 186.41C1153.58 195.578 1158.02 206.005 1154.32 209.699C1150.63 213.392 1140.2 208.954 1131.02 199.786C1128.17 196.8 1125.8 193.395 1123.98 189.69L1128.99 189.157Z" fill="#E6E6E6"/>
</g>
</g>
</g>
</g>
<defs>
<clipPath id="clip0">
<rect width="1440" height="1024" fill="white"/>
</clipPath>
<clipPath id="clip1">
<path d="M1010.35 169H128.001V947.999H1010.35V169Z" fill="white"/>
</clipPath>
</defs>
</svg>
